<?xml version="1.0" encoding="UTF-8" standalone="no"?>
<svg
   xmlns:dc="http://purl.org/dc/elements/1.1/"
   xmlns:cc="http://creativecommons.org/ns#"
   xmlns:rdf="http://www.w3.org/1999/02/22-rdf-syntax-ns#"
   xmlns:svg="http://www.w3.org/2000/svg"
   xmlns="http://www.w3.org/2000/svg"
   id="svg855"
   xml:space="preserve"
   enable-background="new 0 0 708.66 425.2"
   viewBox="0 0 573.251 287.19298"
   height="287.19299"
   width="573.25098"
   y="0px"
   x="0px"
   version="1.1"><metadata
   id="metadata861"><rdf:RDF><cc:Work
       rdf:about=""><dc:format>image/svg+xml</dc:format><dc:type
         rdf:resource="http://purl.org/dc/dcmitype/StillImage" /><dc:title></dc:title></cc:Work></rdf:RDF></metadata><defs
   id="defs859">
	
	
	
	
	
	
</defs>
<g
   transform="translate(-70.704002,-67.001999)"
   id="Blauer_Hintergrund">
	<rect
   style="fill:#183f7c"
   id="rect839"
   height="287.19299"
   width="573.25098"
   y="67.001999"
   x="70.704002" />
</g>
<polygon
   transform="translate(-70.704002,-67.001999)"
   points="114.614,114.952 176.05,276.91 209.761,190.668 178.944,114.952 "
   id="polygon842"
   style="fill:#ffffff" /><polygon
   transform="translate(-70.704002,-67.001999)"
   points="261.726,245.681 261.726,278.556 304.75,278.556 304.75,233.78 375.391,233.78 375.391,278.556 418.417,278.556 418.417,190.653 375.391,190.653 375.391,199.225 304.75,199.225 304.75,155.083 297.129,155.083 296.535,156.605 "
   id="polygon844"
   style="fill:#ffffff" /><polygon
   transform="translate(-70.704002,-67.001999)"
   points="423.18,186.562 423.18,278.556 466.199,278.556 466.199,186.562 513.976,186.562 513.976,155.083 375.031,155.083 375.031,186.562 "
   id="polygon848"
   style="fill:#ffffff" /><polygon
   transform="translate(-70.704002,-67.001999)"
   points="470.847,190.653 470.847,278.556 599.567,278.556 599.594,247.082 513.864,247.082 513.864,190.653 "
   id="polygon850"
   style="fill:#ffffff" /><polygon
   transform="translate(-70.704002,-67.001999)"
   points="228.16,155.083 179.895,278.556 244.389,278.556 292.641,155.083 "
   id="polygon852"
   style="fill:#b2b2b2" />
</svg>