<?xml version="1.0" encoding="UTF-8" standalone="no"?>
<svg
   xmlns:dc="http://purl.org/dc/elements/1.1/"
   xmlns:cc="http://creativecommons.org/ns#"
   xmlns:rdf="http://www.w3.org/1999/02/22-rdf-syntax-ns#"
   xmlns:svg="http://www.w3.org/2000/svg"
   xmlns="http://www.w3.org/2000/svg"
   version="1.1"
   id="svg2"
   xml:space="preserve"
   width="856.36249"
   height="288.884"
   viewBox="0 0 856.36245 288.884"><metadata
     id="metadata8"><rdf:RDF><cc:Work
         rdf:about=""><dc:format>image/svg+xml</dc:format><dc:type
           rdf:resource="http://purl.org/dc/dcmitype/StillImage" /><dc:title></dc:title></cc:Work></rdf:RDF></metadata><defs
     id="defs6" /><g
     id="g10"
     transform="matrix(1.3333333,0,0,-1.3333333,-141.63853,576.90759)"><g
       id="g12"
       transform="translate(634.9658,332.4287)"><path
         d="m 0,0 h -56.97 v -116.411 h 170.469 l 0.036,41.682 H 0 Z"
         style="fill:#134883;fill-opacity:1;fill-rule:nonzero;stroke:none"
         id="path14" /></g><g
       id="g16"
       transform="translate(256.6006,379.5376)"><path
         d="M 0,0 -63.919,-163.519 H 21.494 L 85.394,0 Z"
         style="fill:#b2b2b2;fill-opacity:1;fill-rule:nonzero;stroke:none"
         id="path18" /></g><g
       id="g20"
       transform="translate(191.4209,432.6807)"><path
         d="m 0,0 h -85.192 l 81.36,-214.483 44.644,114.212 z"
         style="fill:#134883;fill-opacity:1;fill-rule:nonzero;stroke:none"
         id="path22" /></g><g
       id="g24"
       transform="translate(451.1074,337.8486)"><path
         d="m 0,0 h 63.763 v -121.83 h 56.974 V 0 h 63.268 V 41.689 H 0 Z"
         style="fill:#134883;fill-opacity:1;fill-rule:nonzero;stroke:none"
         id="path26" /></g><g
       id="g28"
       transform="translate(451.5811,321.0791)"><path
         d="m 0,0 h -93.55 v 58.458 h -10.093 l -46.886,-119.98 v -43.539 h 56.979 v 59.299 H 0 v -59.299 H 56.984 V 11.352 H 0 Z"
         style="fill:#134883;fill-opacity:1;fill-rule:nonzero;stroke:none"
         id="path30" /></g></g></svg>